<svg xmlns="http://www.w3.org/2000/svg" width="64" height="64" viewBox="0 0 64 64">
  <g id="Grupo_8" data-name="Grupo 8" transform="translate(-567.5 -60)">
    <g id="Grupo_5" data-name="Grupo 5" transform="translate(567.5 60)">
      <path id="Caminho_16" data-name="Caminho 16" d="M70.912,37.409H40.58a2.167,2.167,0,0,1,0-4.333H70.912a2.167,2.167,0,0,1,0,4.333Z" transform="translate(-25.967 9.865)" fill="#ff808b"/>
      <path id="Caminho_17" data-name="Caminho 17" d="M70.912,33.409H40.58a2.167,2.167,0,0,1,0-4.333H70.912a2.167,2.167,0,0,1,0,4.333Z" transform="translate(-25.967 5.277)" fill="#ff808b"/>
      <path id="Caminho_18" data-name="Caminho 18" d="M55.746,29.409H40.58a2.167,2.167,0,0,1,0-4.333H55.746a2.167,2.167,0,1,1,0,4.333Z" transform="translate(-25.784 0.689)" fill="#ff808b"/>
      <path id="Caminho_19" data-name="Caminho 19" d="M81.135,42.851l-7.8-5.458a.588.588,0,0,0-.925.481v1.534c0,.022-.017.037-.017.061v1.283a.416.416,0,0,1-.416.416H63.765l-.019,0H48.58a2.167,2.167,0,0,0,0,4.333H72.018a.416.416,0,0,1,.416.416v1.278a.39.39,0,0,0,.035.121v1.473a.588.588,0,0,0,.927.481l7.739-5.451A.589.589,0,0,0,81.135,42.851Z" transform="translate(-17.385 14.625)" fill="#ff808b"/>
      <path id="Caminho_20" data-name="Caminho 20" d="M64.213,73.2h-21.2a10.668,10.668,0,0,1-10.6-10.736V23.812a10.67,10.67,0,0,1,10.6-10.736H55.224a6.354,6.354,0,0,1,5.7,3.564l1.887,3.843a2.114,2.114,0,0,0,1.908,1.181H81.173A10.67,10.67,0,0,1,91.773,32.4V58.167a2.12,2.12,0,1,1-4.24,0V32.4a6.4,6.4,0,0,0-6.36-6.442H64.722a6.354,6.354,0,0,1-5.7-3.564l-1.887-3.843a2.118,2.118,0,0,0-1.908-1.181H43.013a6.4,6.4,0,0,0-6.36,6.442v38.65a6.4,6.4,0,0,0,6.36,6.442h21.2a2.147,2.147,0,0,1,0,4.294Z" transform="translate(-32.413 -13.076)" fill="#5e81f4"/>
    </g>
  </g>
</svg>
