<svg xmlns="http://www.w3.org/2000/svg" width="252.364" height="67" viewBox="0 0 252.364 67">
  <g id="Grupo_8" data-name="Grupo 8" transform="translate(-567.5 -60)">
    <g id="Grupo_6" data-name="Grupo 6" transform="translate(0 -2)">
      <path id="Caminho_21" data-name="Caminho 21" d="M7.272,0V-24.84h-4.5V0ZM24.084-18.144c-2.592,0-5.112,1.188-7.632,3.132l-.288-2.628H12.492V0h4.392l-.036-12.276c2.484-1.368,4.068-2.16,5.832-2.16,1.4,0,1.872.54,1.872,2.52V0h4.392V-13.248C28.944-16.416,27.216-18.144,24.084-18.144Zm15.948,0c-5.184,0-7.2,1.116-7.2,5,0,2.808,1.008,4.284,4.14,5.184L41.616-6.7c1.656.468,2.592.576,2.592,1.908,0,1.4-1.008,1.692-4.752,1.692-2.268,0-4.608-.036-6.012-.144L33.156-.18A45.887,45.887,0,0,0,40.536.4c5.508,0,7.884-.9,7.884-5.22,0-3.1-1.3-4.248-4.212-5.076l-4.752-1.3c-1.656-.468-2.412-.5-2.412-1.908,0-1.476.792-1.512,3.744-1.512,2.232,0,4.5.072,6.732.144l.324-3.024A59.627,59.627,0,0,0,40.032-18.144Zm28.26.5H63.936V-5.148C61.74-3.888,60.3-3.24,58.788-3.24c-1.656,0-2.2-.612-2.16-2.484V-17.64H52.236V-4.428c0,3.24,1.692,4.9,4.9,4.9a12,12,0,0,0,7.38-2.844L64.836,0h3.456Zm26.82-.5a9.856,9.856,0,0,0-6.7,2.952c-.612-1.944-2.124-2.952-4.5-2.952-2.448,0-4.608,1.08-6.876,3.1l-.288-2.592H73.188V0h4.356V-12.348c2.376-1.584,3.348-2.088,4.716-2.088,1.512,0,2.232.612,2.2,2.52V0h4.212V-12.312c2.3-1.584,3.276-2.124,4.752-2.124,1.656,0,2.16.72,2.2,2.52V0H99.9V-13.248C99.9-16.416,98.244-18.144,95.112-18.144Zm18.288,0a58.471,58.471,0,0,0-8.82.864l.432,3.1c2.772-.216,5.76-.36,7.38-.36,2.52,0,3.2.5,3.24,2.52v1.08h-6.624c-3.312,0-5.22,1.62-5.22,4.428v1.8c0,3.312,2.34,5.112,5.58,5.112a9.223,9.223,0,0,0,6.732-3.06L116.568,0h3.456V-11.988C120.024-16.7,117.756-18.144,113.4-18.144ZM108.144-5.976c0-1.188.432-1.908,1.872-1.98h5.616V-5.22a8.566,8.566,0,0,1-5.184,2.088c-1.584,0-2.3-.648-2.3-2.16Zm22.5-8.5h5.184V-17.64h-5.184v-5.076h-4.356v5.076l-3.168.18v2.988h3.168l.036,9.72c0,3.276,1.692,5.148,4.788,5.148a18.763,18.763,0,0,0,4.536-.612l-.468-3.24h-2.412c-1.584,0-2.124-.5-2.124-2.052Zm16.488-3.672c-6.372,0-8.748,2.556-8.748,9.324S140.76.468,147.132.468c6.336,0,8.676-2.52,8.676-9.288S153.468-18.144,147.132-18.144Zm0,3.492c3.168,0,4.14,1.26,4.14,5.832,0,4.536-.972,5.8-4.14,5.8-3.24,0-4.176-1.26-4.176-5.8C142.956-13.392,143.892-14.652,147.132-14.652Zm24.732-3.492H171a11.959,11.959,0,0,0-7.272,3.1l-.4-2.592h-3.42V0H164.3V-12.492c2.52-.972,4.14-1.548,5.832-1.548h1.26Z" transform="translate(648 111)" fill="#5e81f4"/>
      <g id="Grupo_5" data-name="Grupo 5" transform="translate(535.087 48.924)">
        <path id="Caminho_16" data-name="Caminho 16" d="M72.149,37.574H40.662a2.249,2.249,0,0,1,0-4.5H72.149a2.249,2.249,0,1,1,0,4.5Z" transform="translate(7.494 24.981)" fill="#ff808b"/>
        <path id="Caminho_17" data-name="Caminho 17" d="M72.149,33.574H40.662a2.249,2.249,0,0,1,0-4.5H72.149a2.249,2.249,0,1,1,0,4.5Z" transform="translate(7.494 19.985)" fill="#ff808b"/>
        <path id="Caminho_18" data-name="Caminho 18" d="M56.406,29.574H40.662a2.249,2.249,0,0,1,0-4.5H56.406a2.249,2.249,0,1,1,0,4.5Z" transform="translate(7.494 14.989)" fill="#ff808b"/>
        <path id="Caminho_19" data-name="Caminho 19" d="M82.457,43.063,74.36,37.4a.61.61,0,0,0-.96.5V39.49c0,.022-.018.038-.018.063v1.331a.432.432,0,0,1-.432.432H64.426l-.02,0H48.662a2.249,2.249,0,1,0,0,4.5h24.33a.432.432,0,0,1,.432.432v1.327a.4.4,0,0,0,.036.126v1.529a.611.611,0,0,0,.963.5l8.034-5.659A.612.612,0,0,0,82.457,43.063Z" transform="translate(17.487 30.24)" fill="#ff808b"/>
        <path id="Caminho_20" data-name="Caminho 20" d="M66.149,76.05H43.658A11.245,11.245,0,0,1,32.413,64.8V24.321A11.247,11.247,0,0,1,43.658,13.076H56.613a6.75,6.75,0,0,1,6.05,3.733l2,4.026a2.246,2.246,0,0,0,2.024,1.237H84.142A11.247,11.247,0,0,1,95.387,33.318V60.306a2.249,2.249,0,0,1-4.5,0V33.318a6.747,6.747,0,0,0-6.747-6.747H66.689a6.75,6.75,0,0,1-6.05-3.733l-2-4.026a2.25,2.25,0,0,0-2.024-1.237H43.658a6.747,6.747,0,0,0-6.747,6.747V64.8a6.747,6.747,0,0,0,6.747,6.747H66.149a2.249,2.249,0,0,1,0,4.5Z" transform="translate(0)" fill="#5e81f4"/>
      </g>
    </g>
  </g>
</svg>
